<?xml version="1.0" encoding="utf-8"?>
<!-- Generator: Adobe Illustrator 23.0.3, SVG Export Plug-In . SVG Version: 6.00 Build 0)  -->
<svg version="1.1" id="Layer_1" xmlns="http://www.w3.org/2000/svg" xmlns:xlink="http://www.w3.org/1999/xlink" x="0px" y="0px"
	 viewBox="0 0 1695.8 1435" style="enable-background:new 0 0 1695.8 1435;" xml:space="preserve">
<style type="text/css">
	.st0{fill:#FDE4E8;}
	.st1{fill:#FBCFD6;}
	.st2{fill:#F9BFC8;}
	.st3{fill:#EDE8E9;}
	.st4{fill:#F7F7F7;}
	.st5{fill:#E2DCDE;}
	.st6{fill:#D3C9CD;}
	.st7{fill:#6A7DB7;}
	.st8{fill:#F48494;}
	.st9{fill:#FFFFFF;}
	.st10{fill:#BFE8F7;}
	.st11{fill:#223A77;}
	.st12{fill:url(#SVGID_1_);}
	.st13{fill:url(#SVGID_2_);}
	.st14{fill:url(#SVGID_3_);}
	.st15{fill:url(#SVGID_4_);}
	.st16{fill:#374891;}
	.st17{fill:url(#SVGID_5_);}
	.st18{fill:#EBFDFF;}
	.st19{fill:url(#SVGID_6_);}
	.st20{fill:url(#SVGID_7_);}
	.st21{fill:url(#SVGID_8_);}
	.st22{fill:url(#SVGID_9_);}
	.st23{fill:url(#SVGID_10_);}
	.st24{fill:url(#SVGID_11_);}
	.st25{fill:url(#SVGID_12_);}
	.st26{fill:url(#SVGID_13_);}
	.st27{fill:#E0DEDE;}
	.st28{fill:#E84D7E;}
</style>
<g>
	<g>
		<g>
			<path class="st0" d="M212.7,687.5c-7.2-51.3-15-103-15.4-155c-0.2-26.6,1.5-53.6,5.8-80.1c-3.3,7.5-6.3,15.1-9.1,23
				c-29.8,82.5-29.7,172.2-40.5,258.3c-5.1,34.8-12.4,69.2-25.3,102c-7.7,16.8-17,32.8-27.9,47.8c-13.8,16.8-28.9,32.6-42.7,49.4
				c-20.3,24.9-37,49.8-47.6,80.3c-19.9,57.6-7.8,119.7,15.6,174c19.7,45.8,51.6,87.4,88.1,121.5c-13.2-21.8-23-45.7-27.7-70.6
				c-3.9-21.1-6.3-42.4-3.8-63.7c2.7-22.7,6.8-44,15.3-65.2c8.4-20.8,17.8-40.7,29.6-59.9c9.2-15.1,19.3-29.6,29.3-44.2
				c18.5-26.7,37-53.6,50.7-83.1c7.1-18.7,12.2-38.1,15.4-57.9c5.3-49.6,0.6-99.5-5.8-148.9C215.3,706.1,214,696.8,212.7,687.5z"/>
			<path class="st0" d="M1628.2,553.2c-40.9-60.1-99.9-108.7-171.8-126.6c-27.7-6.9-56.3-9.5-84.8-9.5c-5.2,0-10.4,0.1-15.6,0.3
				c18.4,2.9,36.4,7.6,53.6,14.5c19,7.7,37.5,16,54.6,27.4c16.3,10.9,32.1,23.2,46.4,36.7c25.5,24.2,47.7,53.5,64.1,84.6
				c77.3,145.9,42.7,322.2-31.7,461.9c-63.9,120-165.5,222.6-285.4,286.9c-57.7,30.9-118.7,52.9-181.6,68.4
				c27.4-0.1,54.7-0.4,82.1-0.7c83-1,167.1-9.6,239.8-52.7c62.2-36.8,110.7-92,149.7-151.9c40.1-61.8,71.1-130.2,97.4-198.7
				c29.1-75.7,49.1-157.2,46.3-238.7C1688.7,684,1668.5,612.4,1628.2,553.2z"/>
			<path class="st0" d="M410.2,1429.6c0.2,0,0.5,0,0.7,0c8,0,15.8-2,23-5.4c-24.2,0.2-48.4,0.7-72.6,1.8
				C377.5,1428.1,393.7,1429.3,410.2,1429.6z"/>
			<path class="st0" d="M113.9,1309.2c-0.1-0.1-0.3-0.2-0.4-0.4c8.8,14.6,19.1,28.3,30.2,40.8c30,33.7,73.3,60,117.8,68.5
				c5.5,1.1,11,1.7,16.4,1.8c9,5.5,19.3,9.2,29.7,9.2c1.1,0,2.3,0,3.4-0.1c16.8-1.3,33.5-2.4,50.3-3.1c-42.9-5.7-84.4-18-124.6-35.4
				C191.5,1371.1,149.8,1342.7,113.9,1309.2z"/>
			<path class="st0" d="M459.5,1400.4c-5.8,10.2-14.9,18.6-25.5,23.7c5.1,0,10.2,0,15.4,0c51.4,0,102.8,1.6,154.2,3.2
				s102.8,3.2,154.2,3.2c14.3,0,28.7-0.1,43-0.4c92.2-1.8,185.5-10.4,275.2-32.4c-57.2,0.3-114.5,0.3-171.7,0.6
				C756,1399,607.8,1399.7,459.5,1400.4z"/>
			<path class="st0" d="M1296.6,413.2c-37.2,0.2-74.1,5.3-111.3,6.3c-4,0.1-8,0.2-12,0.2c-10.7,0-21.4-0.4-32.1-1.5
				c-12.3-2.2-24.4-5.4-36.1-9.7c-13-6.2-25.4-13.7-37.1-22.2c-58.2-47.8-98.4-113.5-151.2-166.8c-32.2-32.6-69.9-60.9-111.3-80.6
				c-23.6-11.2-48.1-21.1-73.3-28.1c-25.1-7-51-10.9-76.9-13.6c-13.4-1.4-27-2.1-40.6-2.1c-79.5,0-160.3,24-225.5,68.8
				C309.3,218.8,249.7,297.2,218.5,389c-7,20.6-12.1,41.8-15.5,63.4c14.8-34,33.9-64.8,58.3-93.7c26.3-31.2,59-57.7,93.7-79.1
				c71.4-44,155.8-65.8,239.6-65.8c2.2,0,4.3,0,6.5,0c96.7,1.3,191,29.3,276.9,72.3c72.8,36.5,138.3,86.1,213,118.9
				c24.3,9.7,49.3,17.2,75.2,21.4c12.4,1.3,24.8,1.9,37.3,1.9c3.5,0,7,0,10.5-0.1c38.9-1,77.5-6.6,116.3-9.5
				c8.6-0.7,17.2-1.1,25.9-1.4c-18.8-3-37.9-4.2-56.8-4.2C1298.4,413.2,1297.5,413.2,1296.6,413.2z"/>
			<path class="st1" d="M1510.6,495.9c-14.3-13.5-30-25.8-46.4-36.7c-17.1-11.4-35.6-19.7-54.6-27.4c-17.1-6.9-35.2-11.6-53.6-14.5
				c-8.6,0.3-17.3,0.8-25.9,1.4c-38.8,2.9-77.4,8.6-116.3,9.5c-3.5,0.1-7,0.1-10.5,0.1c-12.5,0-24.9-0.6-37.3-1.9
				c-25.8-4.2-50.9-11.7-75.2-21.4c-74.7-32.8-140.2-82.4-213-118.9c-85.9-43-180.2-71-276.9-72.3c-2.2,0-4.3,0-6.5,0
				c-83.8,0-168.2,21.7-239.6,65.8c-34.7,21.4-67.4,47.9-93.7,79.1c-24.3,28.9-43.5,59.7-58.3,93.7c-4.2,26.5-6,53.5-5.8,80.1
				c0.4,52,8.2,103.6,15.4,155c1.3,9.3,2.6,18.6,3.9,27.8c6.4,49.3,11.1,99.3,5.8,148.9c-3.3,19.8-8.3,39.2-15.4,57.9
				c-13.7,29.5-32.2,56.4-50.7,83.1c-10,14.5-20.1,29.1-29.3,44.2c-11.7,19.2-21.1,39.1-29.6,59.9c-8.6,21.2-12.7,42.6-15.3,65.2
				c-2.5,21.3-0.1,42.6,3.8,63.7c4.7,24.9,14.5,48.7,27.7,70.6c0.1,0.1,0.3,0.2,0.4,0.4c35.9,33.5,77.6,61.9,122.8,81.4
				c40.2,17.4,81.7,29.6,124.6,35.4c24.2-1.1,48.4-1.6,72.6-1.8c10.6-5.1,19.7-13.6,25.5-23.7c148.3-0.7,296.5-1.5,444.8-2.2
				c57.2-0.3,114.5-0.3,171.7-0.6c62.9-15.4,123.9-37.5,181.6-68.4c119.9-64.3,221.5-166.9,285.4-286.9
				c74.4-139.6,109-315.9,31.7-461.9C1558.2,549.4,1536.1,520.1,1510.6,495.9z M1464.1,901.2c-3.3,30.3-7.9,60.5-15.5,90
				c-7.5,29.4-18.2,57.5-30,85.4c-21.3,50-51.7,96.4-89.2,135.9c-39,41-87.4,73.7-139.2,96.3c-29.7,13-59.8,24.4-91,33.4
				c-26.5,7.7-53.5,13.9-80.6,19.3c-64.7,13-130.4,21.6-196.1,27.5c-109,9.6-218.6,10.5-328,10.5c-12,0-24.1,0-36.2,0
				c-7.6,0-14.9-1.3-21.7-3.7c-11.1,6.8-24.8,10.6-36.9,10.6c-0.7,0-1.5,0-2.2,0c-8.7,0-16.8-2-24.4-6c-8.6-2.8-16-7.5-22.2-14.3
				c-12.7-10.3-24.3-22-34.5-34.9c-13.4-17-26.1-34-35.9-53.4c-8.9-17.6-16.7-36.1-22.5-54.9c-6-19.3-8.8-38.9-11.4-58.9
				c-4.4-33.9-1.5-69,6.3-102.2c8.5-36.3,25.9-70.5,44.6-102.5c15-25.6,31.1-50.6,43.6-77.5c5-13.4,8.8-27.2,11.3-41.3
				c0.7-7,1.1-14,1.4-21.1c1.3-41-4.1-81.9-5.4-122.9c-1.3-40.8,2.7-82.1,12.9-121.7c5.6-21.5,13.7-41.8,22.4-62.1
				c6.4-15,13.8-29.5,22.3-43.4c11.4-18.5,24.7-36,39-52.4c10.7-12.4,22.5-23.8,35.3-34.1c16.7-13.4,33.8-26.4,52.7-36.4
				c18.4-9.8,37.9-17.9,57.8-24c20.3-6.1,41.3-9.1,62.3-11.4c9.1-1,18.3-1.5,27.5-1.5c6.3,0,12.5,0.2,18.8,0.7
				c20.8,1.6,42,4.5,62.2,9.9c19.7,5.3,38.9,13.2,57.1,22.2c18.6,9.2,34.9,21.4,51,34.4c17,13.7,30.2,30.3,43.4,47.6
				c42,55.4,57.4,125.5,97.5,182c6.8,8.1,14.1,15.7,22.1,22.6c4.8,3.2,9.7,6.2,14.9,8.8c4.6,1.6,9.3,2.8,14.1,3.8
				c3.1,0.2,6.2,0.3,9.4,0.3c5,0,10-0.2,15-0.7c8-1.4,15.9-3.2,23.7-5.2c22.4-5.8,44.2-13.4,66.4-19.8c26.8-7.8,54.4-13.6,82.3-15
				c2.9-0.1,5.9-0.2,8.8-0.2c30.5,0,60.3,7.8,87.6,21.5c15,7.5,28.9,18.5,41.1,29.8c12.4,11.5,23.1,25.5,32.4,39.6
				c9.5,14.4,16.2,30.5,22.4,46.5c5,12.8,8.3,26.3,10.5,39.9c3.1,19.8,5.4,39.5,5.4,59.5C1466.7,872.3,1465.7,886.8,1464.1,901.2z"
				/>
			<path class="st2" d="M1450.9,758.5c-6.2-16-12.9-32.1-22.4-46.5c-9.3-14.1-19.9-28.1-32.4-39.6c-12.2-11.3-26.1-22.3-41.1-29.8
				c-27.3-13.7-57-21.5-87.6-21.5c-2.9,0-5.8,0.1-8.8,0.2c-27.9,1.4-55.6,7.1-82.3,15c-22.2,6.5-44,14.1-66.4,19.8
				c-7.9,2-15.8,3.8-23.7,5.2c-5,0.4-10,0.7-15,0.7c-3.1,0-6.2-0.1-9.4-0.3c-4.8-1-9.5-2.3-14.1-3.8c-5.1-2.6-10.1-5.6-14.9-8.8
				c-8-6.9-15.3-14.5-22.1-22.6c-40.1-56.4-55.5-126.6-97.5-182c-13.2-17.3-26.4-33.9-43.4-47.6c-16.1-13-32.5-25.2-51-34.4
				c-18.2-9-37.4-16.9-57.1-22.2c-20.2-5.4-41.4-8.3-62.2-9.9c-6.3-0.5-12.5-0.7-18.8-0.7c-9.2,0-18.4,0.5-27.5,1.5
				c-21,2.3-42,5.3-62.3,11.4c-19.9,6-39.5,14.2-57.8,24c-19,10.1-36,23-52.7,36.4c-12.8,10.2-24.6,21.7-35.3,34.1
				c-14.2,16.4-27.6,33.9-39,52.4c-8.6,13.9-15.9,28.4-22.3,43.4c-8.7,20.4-16.8,40.7-22.4,62.1c-10.3,39.5-14.2,80.9-12.9,121.7
				c1.3,41,6.7,81.8,5.4,122.9c-0.2,7.1-0.7,14.1-1.4,21.1c-2.5,14.1-6.2,27.9-11.3,41.3c-12.4,26.9-28.6,52-43.6,77.5
				c-18.7,32-36.1,66.2-44.6,102.5c-7.8,33.2-10.7,68.3-6.3,102.2c2.6,20,5.4,39.6,11.4,58.9c5.8,18.9,13.6,37.3,22.5,54.9
				c9.8,19.4,22.5,36.4,35.9,53.4c10.2,12.9,21.7,24.6,34.5,34.9c6.2,6.7,13.7,11.5,22.2,14.3c7.6,4,15.7,6,24.4,6
				c0.7,0,1.4,0,2.2,0c12,0,25.7-3.8,36.9-10.6c6.9,2.4,14.1,3.7,21.7,3.7c12,0,24.1,0,36.2,0c109.4,0,218.9-0.9,328-10.5
				c65.7-5.8,131.4-14.4,196.1-27.5c27.1-5.4,54-11.7,80.6-19.3c31.2-9,61.2-20.5,91-33.4c51.8-22.6,100.2-55.2,139.2-96.3
				c37.5-39.4,67.9-85.8,89.2-135.9c11.9-27.9,22.5-55.9,30-85.4c7.5-29.6,12.1-59.8,15.5-90c1.6-14.4,2.6-28.9,2.6-43.3
				c0-20-2.3-39.7-5.4-59.5C1459.3,784.8,1455.9,771.3,1450.9,758.5z"/>
		</g>
		<g>
			<g>
				<path class="st3" d="M615.1,60.2H85.6C68.7,60.2,55,73.9,55,90.8v538c0,16.9,13.7,30.6,30.6,30.6h529.5
					c16.9,0,30.6-13.7,30.6-30.6v-538C645.7,73.9,632,60.2,615.1,60.2z"/>
				<rect x="69.5" y="227.5" class="st4" width="562.2" height="361.6"/>
				<rect x="69.5" y="105.5" class="st5" width="562.2" height="105.8"/>
				<rect x="295.3" y="75.3" class="st4" width="110" height="7.6"/>
				<g>
					<rect x="130.4" y="126.7" class="st6" width="435.6" height="5"/>
					<rect x="117" y="144" class="st6" width="467.2" height="5"/>
					<rect x="124.7" y="159.1" class="st6" width="452.3" height="5"/>
					<rect x="149.3" y="175.7" class="st6" width="403.2" height="5"/>
				</g>
				<circle class="st5" cx="146.4" cy="305.8" r="37.4"/>
				<circle class="st5" cx="146.4" cy="405.8" r="37.4"/>
				<g>
					<rect x="202.4" y="277.8" class="st3" width="353.8" height="6.6"/>
					<rect x="202.4" y="294.3" class="st3" width="353.8" height="6.6"/>
					<rect x="202.4" y="310.8" class="st3" width="353.8" height="6.6"/>
					<rect x="202.4" y="327.2" class="st3" width="353.8" height="6.6"/>
				</g>
				<g>
					<rect x="202.4" y="377.8" class="st3" width="353.8" height="6.6"/>
					<rect x="202.4" y="394.2" class="st3" width="353.8" height="6.6"/>
					<rect x="202.4" y="410.7" class="st3" width="353.8" height="6.6"/>
					<rect x="202.4" y="427.2" class="st3" width="353.8" height="6.6"/>
				</g>
				<circle class="st5" cx="146.4" cy="511.5" r="37.4"/>
				<g>
					<rect x="202.4" y="483.5" class="st3" width="353.8" height="6.6"/>
					<rect x="202.4" y="499.9" class="st3" width="353.8" height="6.6"/>
					<rect x="202.4" y="516.4" class="st3" width="353.8" height="6.6"/>
					<rect x="202.4" y="532.9" class="st3" width="353.8" height="6.6"/>
				</g>
			</g>
			<g>
				<path class="st5" d="M1077.9,510v490.9H1234V479.4h-125.5C1091.6,479.4,1077.9,493.1,1077.9,510z"/>
				<path class="st3" d="M1665.2,479.4h-431.3v521.5h431.3c16.9,0,30.6-13.7,30.6-30.6V510C1695.8,493.1,1682.1,479.4,1665.2,479.4z
					"/>
				<rect x="1273.9" y="652.3" class="st4" width="382" height="304.2"/>
				<rect x="1273.9" y="516.2" class="st5" width="382" height="98"/>
				<circle class="st4" cx="1329.1" cy="565.2" r="29.7"/>
				
					<ellipse transform="matrix(0.982 -0.1891 0.1891 0.982 -86.0264 228.783)" class="st4" cx="1156" cy="565.2" rx="29.7" ry="29.7"/>
				
					<ellipse transform="matrix(0.982 -0.1891 0.1891 0.982 -108.264 230.9082)" class="st4" cx="1156" cy="682.8" rx="29.7" ry="29.7"/>
				
					<ellipse transform="matrix(0.7071 -0.7071 0.7071 0.7071 -227.2698 1051.7218)" class="st4" cx="1155.9" cy="800.2" rx="29.7" ry="29.7"/>
				<rect x="1381.5" y="544.2" class="st4" width="180.7" height="4"/>
				<rect x="1381.5" y="561.2" class="st4" width="255.5" height="4"/>
				<rect x="1381.5" y="578.2" class="st4" width="255.5" height="4"/>
				<g>
					<rect x="1331.8" y="684.4" class="st5" width="158.6" height="4"/>
					<rect x="1331.8" y="695.1" class="st5" width="255.5" height="4"/>
					<rect x="1296.5" y="682" class="st5" width="21.5" height="21.5"/>
				</g>
				<g>
					<rect x="1331.8" y="734.9" class="st5" width="158.6" height="4"/>
					<rect x="1331.8" y="745.6" class="st5" width="255.5" height="4"/>
					<rect x="1296.5" y="732.5" class="st5" width="21.5" height="21.5"/>
				</g>
				<g>
					<rect x="1331.8" y="785.4" class="st5" width="158.6" height="4"/>
					<rect x="1331.8" y="796" class="st5" width="255.5" height="4"/>
					<rect x="1296.5" y="783" class="st5" width="21.5" height="21.5"/>
				</g>
				<g>
					<rect x="1331.8" y="835.8" class="st5" width="158.6" height="4"/>
					<rect x="1331.8" y="846.5" class="st5" width="255.5" height="4"/>
					<rect x="1296.5" y="833.4" class="st5" width="21.5" height="21.5"/>
				</g>
				<g>
					<rect x="1331.8" y="886.3" class="st5" width="158.6" height="4"/>
					<rect x="1331.8" y="897" class="st5" width="255.5" height="4"/>
					<rect x="1296.5" y="883.9" class="st5" width="21.5" height="21.5"/>
				</g>
			</g>
			<g>
				<path class="st7" d="M1167.7,346.2h-165.9c-16.8,0-30.5,13.7-30.5,30.5v213.2c0,16.8,13.7,30.5,30.5,30.5h165.9
					c16.8,0,30.5-13.7,30.5-30.5V376.7C1198.2,359.9,1184.6,346.2,1167.7,346.2z"/>
				<g>
					<circle class="st4" cx="1084.8" cy="444.6" r="49.5"/>
					<rect x="1027.8" y="526.1" class="st4" width="114" height="8.3"/>
					<rect x="1003.1" y="551.1" class="st4" width="163.3" height="8.3"/>
				</g>
			</g>
			<g>
				<ellipse class="st8" cx="1223.5" cy="340.3" rx="75.9" ry="75.9"/>
				<g>
					<path class="st9" d="M1245.5,355.8l-22,22l-22-22c-2.9-2.9-7.7-2.9-10.6,0s-2.9,7.7,0,10.6l27.3,27.3c1.4,1.4,3.3,2.2,5.3,2.2
						s3.9-0.8,5.3-2.2l27.3-27.3c2.9-2.9,2.9-7.7,0-10.6C1253.2,352.8,1248.4,352.8,1245.5,355.8z"/>
					<path class="st9" d="M1223.5,284.7c-4.1,0-7.5,3.4-7.5,7.5v96.1c0,4.1,3.4,7.5,7.5,7.5s7.5-3.4,7.5-7.5v-96.1
						C1231,288.1,1227.7,284.7,1223.5,284.7z"/>
				</g>
			</g>
			<g>
				<path class="st10" d="M850.4,164.2H606.5c-6.9,0-12.5,5.6-12.5,12.5v89.5c0,6.9,5.6,12.5,12.5,12.5h243.9
					c6.9,0,12.5-5.6,12.5-12.5v-89.5C862.9,169.8,857.3,164.2,850.4,164.2z"/>
				<g>
					<rect x="621" y="187.4" class="st4" width="21.3" height="21.3"/>
					<rect x="661.9" y="191.4" class="st4" width="174" height="4.3"/>
					<rect x="661.9" y="200.4" class="st4" width="174" height="4.3"/>
				</g>
				<g>
					<rect x="621" y="231.8" class="st4" width="21.3" height="21.3"/>
					<rect x="661.9" y="235.8" class="st4" width="174" height="4.3"/>
					<rect x="661.9" y="244.8" class="st4" width="174" height="4.3"/>
				</g>
			</g>
			<g>
				<circle class="st7" cx="656.7" cy="71.8" r="71.8"/>
				<polygon class="st9" points="635.1,71.8 635.1,114.4 694.4,71.8 635.1,29.2 				"/>
			</g>
		</g>
		<g>
			<path class="st11" d="M814.6,583.9c-18.3-41-48.8-78.9-88.8-100.3c-18.2-9.8-37.9-15.8-57.9-17.9c-0.6-1.7-1.4-3.4-2.4-5
				c-8.4-13-25.1-18.1-38.8-10.2c-18.5,10.7-35.6,23.3-51.3,37.4c-4.3,3-8.4,6.4-12.4,9.8c-2.5,2.2-4.4,4.9-5.8,7.9
				c-41.1,43.4-70.3,98.1-86.7,155.8c-13.6,47.7-19,98-18.6,147.6c0.2,26.8,3.2,52.5,20.4,74c15.1,18.8,40,29.5,63.3,33.4
				c26.3,4.4,51.6,2.5,77.8-1.5c11.6-1.8,23.2-4,34.7-6.1c5.6-1,11.1-2,16.7-2.9c2.3-0.4,4.6-0.7,7-1.1c-0.4,0.1,5.2-0.6,6.4-0.8
				c25.7-2.7,51.6,0.9,77.1-3.7c22.8-4.1,44.3-17.5,59.1-35.1c32.3-38.4,40.4-89.2,35.8-137.9C845.8,678.4,834.8,629,814.6,583.9z"
				/>
			
				<linearGradient id="SVGID_1_" gradientUnits="userSpaceOnUse" x1="659.0801" y1="-321.1669" x2="659.0801" y2="-394.6309" gradientTransform="matrix(1 0 0 1 0 1156)">
				<stop  offset="0" style="stop-color:#FDB39A"/>
				<stop  offset="1" style="stop-color:#E99274"/>
			</linearGradient>
			<path class="st12" d="M688.2,667.8c-13.5-8.8-33.4-12.5-48.6-7.1c-15.3,5.5-30,16-37.7,32.2c-8.3,17.4-9.7,34.6-6.4,53.9
				c0.4,2.6,0.9,5.2,1.3,7.9c2,22.3,1.9,44.6-0.5,66.9c-1.7,16.6,8.3,38.2,18.5,49.5c10.9,12.1,28.9,21.3,44.6,20.5
				c16.3-0.8,33.2-6.8,44.6-20.5c3.3-4.7,6.6-9.4,9.9-14.2c5.7-10.9,8.6-22.7,8.6-35.3c3.9-37.5,1-74.9-5.3-111.9
				C714.4,693.2,700.8,676,688.2,667.8z"/>
			
				<linearGradient id="SVGID_2_" gradientUnits="userSpaceOnUse" x1="659.1426" y1="-483.0559" x2="659.1426" y2="-745.0192" gradientTransform="matrix(1 0 0 1 0 1156)">
				<stop  offset="0" style="stop-color:#FDB39A"/>
				<stop  offset="1" style="stop-color:#E99274"/>
			</linearGradient>
			<path class="st13" d="M786,508.8c-15.8-89.7-126.9-87.4-126.9-87.4s-111.1-2.3-126.9,87.4c-13.4,76.1,10.9,69.7,5.5,120.3
				c-5.1,47.4,55.9,150.3,121.4,150.3s126.6-102.9,121.4-150.3C775.1,578.5,799.5,584.9,786,508.8z"/>
			
				<linearGradient id="SVGID_3_" gradientUnits="userSpaceOnUse" x1="457.6443" y1="-290.6282" x2="692.0567" y2="-76.0071" gradientTransform="matrix(1 0 0 1 0 1156)">
				<stop  offset="0" style="stop-color:#BFE8F7"/>
				<stop  offset="1" style="stop-color:#93C6E5"/>
			</linearGradient>
			<path class="st14" d="M836.2,798.9c-40.9-12.1-73.8-4-100.2,3.1c-94.4,54.6-148.9-7.7-148.9-7.7c-31.3-12.5-56.4-46.4-122.8-8.5
				c-71.8,41-167.9,349.3-167.9,349.3l86.3,47.5l80.2-194.3v33.6c1.2,26.5,5.5,62.4,19.6,83.4c24.3,36.2,11.1,206.4,11.1,206.4
				h168.2h146.3c0,0-29.5-158.3-8.1-202.6c13-27,18.8-51.9,21.2-71.8v-45.4l6.5,246.9l97.3-19C925,1219.7,914.9,822.1,836.2,798.9z"
				/>
			
				<linearGradient id="SVGID_4_" gradientUnits="userSpaceOnUse" x1="626.0132" y1="142.45" x2="663.7478" y2="142.45" gradientTransform="matrix(1 0 0 1 0 1156)">
				<stop  offset="0" style="stop-color:#EDE8E9"/>
				<stop  offset="1" style="stop-color:#E0DEDE"/>
			</linearGradient>
			<rect x="493.6" y="1282.4" class="st15" width="684.8" height="32.1"/>
			<path class="st16" d="M1563.4,1317.4h-1443c-11.8,0-21.3,9.5-21.3,21.3v24.6c0,11.8,9.5,21.3,21.3,21.3h1443.1
				c11.8,0,21.3-9.5,21.3-21.3v-24.6C1584.7,1326.9,1575.2,1317.4,1563.4,1317.4z"/>
			
				<linearGradient id="SVGID_5_" gradientUnits="userSpaceOnUse" x1="841.9225" y1="272.65" x2="841.9225" y2="241.7944" gradientTransform="matrix(1 0 0 1 0 1156)">
				<stop  offset="0" style="stop-color:#374891"/>
				<stop  offset="1" style="stop-color:#223A77"/>
			</linearGradient>
			<rect x="201.6" y="1384.5" class="st17" width="1280.6" height="50.5"/>
			<g>
				<g>
					<path class="st18" d="M350.2,984c-4,10-7.8,20-11.5,29.7c30.7,17,62.8,31.6,95.7,43.9l12-29.1c-2.5-0.9-5-1.8-7.5-2.8
						C408.3,1014,378.7,1000,350.2,984z"/>
					<path class="st18" d="M463.7,1034.6c0.9,11.2,2.4,23.3,5,34.8c99.4,31.6,205.5,42.3,309,30.3c9.4-1.1,18.8-2.4,28.2-3.8
						c4.9-11.9,8.4-23.2,10.9-33.8C699.3,1082.9,576.9,1073.1,463.7,1034.6z"/>
					<path class="st18" d="M857.2,1099.2c-10.8,4.7-21.8,9.1-32.8,13.1l0.9,32.8c16.2-5.6,32.1-11.9,47.9-18.8
						c7.8-3.4,9.6-14.8,5.7-21.6C874.1,1096.9,865.1,1095.8,857.2,1099.2z"/>
					<path class="st18" d="M712.6,935.8c-41.6-2-82.6-9.6-123.2-18.1c-39.2-8.2-79.1-17.3-115.4-34.7c-21.2-10.1-41.3-22.9-58.4-39
						c-5.2,8.8-10.4,18.3-15.6,28.3c45.1,39.2,105.6,59.1,163.9,72.1c84.7,18.8,174.8,35.2,260.3,12.1c25.2-6.8,49.5-17,71.6-30.8
						c-2.3-11.4-4.8-22.4-7.4-32.8C838.2,928.4,773.6,938.7,712.6,935.8z"/>
					<path class="st18" d="M706.7,1004.9c-44.7-1.7-89-8.6-132.8-17.4c-37.8-7.6-75.5-16.9-111.7-30.4c-29.1-10.9-57.2-25-82.5-43.1
						c-4.4,9.6-8.7,19.4-12.9,29.2c29.3,20,61.6,35.2,95.2,47.1l0.8-2v2.3c29.7,10.5,60.5,18.4,91.2,24.9
						c87.3,18.4,178.8,30.5,267.1,12.1v-32.2C783.7,1003.8,744.7,1006.3,706.7,1004.9z"/>
					<path class="st18" d="M528.5,833.8c-25.5-11.2-49.3-25.6-69.1-44.9c-7.2,5.2-14.6,12.9-22.2,22.6
						c41.9,41.6,102.1,64.8,158.9,76.1c66.1,13.1,135.1,10.5,200-7.7c27.1-7.6,53.5-18,78.5-30.9c-4.3-11-8.9-20.6-13.9-28.4
						C759.3,872.9,633.5,880.1,528.5,833.8z"/>
					<path class="st18" d="M491,1129c2,9.6,3.4,20.9,4.4,33.1c77.6,18,158.9,20.6,238.4,6.9c19.8-3.4,39.3-7.9,58.6-13.4
						c0.3-12.7,1.4-24.3,3.5-33.7C697.1,1151.9,590.8,1154.2,491,1129z"/>
					<path class="st18" d="M905.7,1040.2c-27.1,8.7-54.7,15.6-82.6,20.8l0.8,31.9c30.5-5.5,60.6-12.8,90.2-22.3
						c0.6-0.2,1.1-0.4,1.6-0.6c-0.9-10-2-20.2-3.1-30.5C910.5,1039.2,908.2,1039.4,905.7,1040.2z"/>
					<path class="st18" d="M821.3,995.3l0.8,32.1c1.9-0.4,3.8-0.8,5.7-1.2c27.8-6.3,54.5-15.8,79.7-28.6
						c-1.5-10.9-3.1-21.8-4.8-32.6C877.3,979.1,849.8,988.9,821.3,995.3z"/>
					<path class="st18" d="M323.2,1055.7c-3.9,11-7.5,21.3-10.7,30.5c28.9,18.2,59.3,33.7,90.7,46.6l11.9-28.8
						c-6.8-2.8-13.6-5.8-20.3-8.9C370.1,1083.7,346.2,1070.5,323.2,1055.7z"/>
					<path class="st18" d="M839.9,1183.1c-4.5,2.2-9,4.3-13.5,6.4l0.9,33.8c9.6-4,19.1-8.3,28.5-12.9
						C874,1201.3,858.1,1174.1,839.9,1183.1z"/>
					<path class="st18" d="M497.2,1212.2c0,10.9-0.1,21.8-0.3,32c72.5,16,147,20.8,222.4,9.2c26.4-4.1,52.4-10.4,77.6-18.8
						c-1.2-10.4-2.2-21.3-3-32.1C698.7,1236.2,595.7,1234.6,497.2,1212.2z"/>
				</g>
			</g>
			
				<linearGradient id="SVGID_6_" gradientUnits="userSpaceOnUse" x1="601.6648" y1="33.4306" x2="330.9281" y2="33.4306" gradientTransform="matrix(1 0 0 1 0 1156)">
				<stop  offset="0" style="stop-color:#FDB39A"/>
				<stop  offset="1" style="stop-color:#E99274"/>
			</linearGradient>
			<path class="st19" d="M610.7,1149.6c0,0-81.5-15.9-179.8-28.4c-62.3-7.9-134.5,13.9-134.5,13.9L283,1182
				c-4.7,16.4,7.7,32.8,24.7,32.8l302.9,1.1c23,48.8,109.7,43.3,109.7,43.3l45.2-66c0,0-55.4-52-77.5-55.1
				S610.7,1149.6,610.7,1149.6z"/>
			
				<linearGradient id="SVGID_7_" gradientUnits="userSpaceOnUse" x1="425.915" y1="6.3874" x2="449.4141" y2="169.5911" gradientTransform="matrix(1 0 0 1 0 1156)">
				<stop  offset="0" style="stop-color:#BC3756"/>
				<stop  offset="1" style="stop-color:#B72440"/>
			</linearGradient>
			<path class="st20" d="M505.1,1164.5h-92.7c-9,0-16.2,7.3-16.2,16.2v5.8c-12.7,0.8-25,4.2-34.1,14.2c-11.5,12.6-15.9,30.9-16,47.6
				c-0.1,17.4,6.3,35,20.7,45.5c8.2,6,19.2,10.4,29.7,10.3c1.4,7.6,8,13.3,15.9,13.3h92.7c9,0,16.2-7.3,16.2-16.2v-120.4
				C521.3,1171.7,514,1164.5,505.1,1164.5z M396.2,1273.4c-4.4,0.8-12.3-4.5-14.6-7.5c-5.1-6.6-5.3-15.9-4.4-23.8
				c0.8-6.9,2.5-15.4,7.5-20.6c3-3.1,7.2-4.2,11.5-4.5V1273.4z"/>
			
				<linearGradient id="SVGID_8_" gradientUnits="userSpaceOnUse" x1="346.8861" y1="-15.4636" x2="266.1343" y2="65.2881" gradientTransform="matrix(1 0 0 1 0 1156)">
				<stop  offset="0" style="stop-color:#BFE8F7"/>
				<stop  offset="1" style="stop-color:#93C6E5"/>
			</linearGradient>
			<path class="st21" d="M296.4,1135.1L283,1182c-4.7,16.4,7.7,32.8,24.7,32.8l20.7,0.1c15.4-42,38.1-84,82.7-95.2
				C354.3,1117.6,296.4,1135.1,296.4,1135.1z"/>
			
				<linearGradient id="SVGID_9_" gradientUnits="userSpaceOnUse" x1="988.2996" y1="0.3008" x2="1063.1515" y2="135.7593" gradientTransform="matrix(1 0 0 1 0 1156)">
				<stop  offset="0" style="stop-color:#FFFFFF"/>
				<stop  offset="1" style="stop-color:#EDE8E9"/>
			</linearGradient>
			<path class="st22" d="M1227.8,935.2H804.4c-16.5,0-30.7,11.7-33.8,27.9L702,1314.6h476.5l69.3-355
				C1250.3,946.9,1240.7,935.2,1227.8,935.2z"/>
			
				<linearGradient id="SVGID_10_" gradientUnits="userSpaceOnUse" x1="631.4506" y1="-532.6051" x2="631.4506" y2="-684.6611" gradientTransform="matrix(1 0 0 1 0 1156)">
				<stop  offset="0" style="stop-color:#374891"/>
				<stop  offset="1" style="stop-color:#223A77"/>
			</linearGradient>
			<path class="st23" d="M866.8,785.3c14.7-53-7.4-106.1-24.9-159.6c-1.2-18.4-2.4-36.7-4.2-55c-4.9-51-12.7-107.1-56.1-140.5
				C739.1,397.6,680,395,628.6,398c-0.6,0-1.2,0.1-1.8,0.3c-1.4,0.1-2.8,0.3-4.2,0.5c-23,4.7-45.6,19.5-63.5,34.1
				c-41.6,33.8-63.5,81.1-76.7,132c-5.1,19.6-9.4,39.5-14.8,59c-14.1,28.8-42.6,50.2-62,75.2c-18.2,23.3-31.2,56.6-18.5,84.6
				c-0.1,0.4-0.2,0.7-0.3,1.1c-5.4,24-3.3,49.9,6,72.7c10.3,25.6,28.8,46.9,54.5,57.9s54.4,10.4,79.6-1.6c2.4-1.1,3.7-2.9,4.2-4.8
				c0.3-0.7,0.4-1.4,0.3-2.2c-1-7.2-6.3-11.6-12.4-14.3c-19.5-32.9-18.9-73.4-16.3-111.1c5.5-25.2,12.7-50.1,19.1-75.1
				c5.2-20.4,8.6-41.5,13.1-62.2c9.6-12,19.3-23.9,28.4-36.3c13.1-17.7,25.5-35.8,37.2-54.4c8.4-13.2,15.6-28.1,24.9-41.1
				c2.1-2.4,4.2-4.9,6.2-7.4c7.4-9.4,21.5-9.6,29.1-0.3c5.8,7.1,12.2,13.6,19,19.4c26.3,22.8,55.1,41,74.4,70.8
				c6.4,10,11.9,20.6,16.4,31.5c5.5,36,7.9,72.5,2.2,108.6c-3.8,23.7-11,46.7-22.4,67.9c-7.9,14.7-16.6,29.4-18.8,45.5
				c-3.7,2.9-7.6,5.5-11.8,7.8c-2.6,1.2-5.3,2.1-8.1,2.7c-0.8,0.2-1.4,0.6-1.9,1c-3.5,1.6-5.8,5.7-5.4,9.4c-0.3,0.9-0.2,1.9,0.6,3
				c4.7,6.5,11.1,9.2,18,10.1c20.6,9.4,42.4,15.8,65,18.8c23.9,3.2,53.3,5.4,73.2-10.8c19.1-15.5,22.3-42.2,18.1-65.1
				C876.5,811.5,871.3,798.5,866.8,785.3z M423.2,714.8c-12.4,17.6-24.9,35.7-32.3,56c-6.8-29.6,14.5-61,34.3-82.4
				c11.3-12.2,23.5-24.2,33.8-37.3C450.2,674.2,437.5,694.5,423.2,714.8z M508.2,889c-3.4-1.1-6.7-2.4-9.3-5.2
				c-0.8-0.9-1.5-1.9-2.2-2.9c-2.9-11.7-3-28.5-2.2-43.2C496.3,855.6,500.3,872.9,508.2,889z M595.1,546.8
				c-12.7,20.3-26.3,40-40.5,59.3c-5,6.7-10.2,13.3-15.4,19.8c1.4-5.3,3-10.5,4.8-15.7c10.8-31.7,33.8-52.6,57.9-74.4
				C599.6,539.5,597.4,543.2,595.1,546.8z M775.6,780.5c-7,21.6-18.3,43.1-34.6,59.3c4.9-16.5,16.1-31.7,22.9-47.1
				c9.2-20.7,14.8-42.7,17.6-65.1c2.4-19.1,2.6-38.3,1.5-57.4C789.5,707,786.9,745.5,775.6,780.5z M861.8,769.2
				c-2.5-8.6-4.7-17.2-6.5-26c-6-28.2-9-56.9-11.2-85.6c1.1,3.2,2.2,6.4,3.2,9.6C857.9,699.6,866.5,735.3,861.8,769.2z"/>
			<g>
				<g>
					
						<linearGradient id="SVGID_11_" gradientUnits="userSpaceOnUse" x1="1306.6932" y1="-292.2009" x2="1319.2218" y2="-205.1886" gradientTransform="matrix(1 0 0 1 0 1156)">
						<stop  offset="0" style="stop-color:#374891"/>
						<stop  offset="1" style="stop-color:#223A77"/>
					</linearGradient>
					<path class="st24" d="M1357.8,836.1c-3.3-14.4-9.3-28.1-17.5-40.3c-6.1-9.2-16.7-25.6-29.1-26.6c-11.7-0.9-16.5,12.6-14.3,22.2
						c1.7,7.3,6.7,13.4,8.6,20.6s0.3,14.4-2.4,21.2c-4.9,12.3-13.2,23.1-17.3,35.7c-4,12.6-1.6,23.2,3.9,34.9
						c3.1,6.6,6.8,13.6,5.7,21.1c-1.5,10.5-10.2,18.4-16.8,25.9c-8.8,10-16.9,23.1-11.4,36.7c3.1,7.6,9.5,13.1,13.6,20
						c4.9,8.2,5.1,17.8,3.3,26.9c-3.8,19.3-16.3,36.2-16.9,56.2c-0.8,28.8,21.8,54.8,50,59.2c3,0.5,4.2-2.5,3.3-4.7
						c0-0.5,0-1.1-0.2-1.6c-2.1-5.8,7.7-15.9,10.8-20c2.9-3.7,5.9-6.3,9-9.8c3.1-2.1,5.9-5.2,8.1-7.5c10.5-10.7,9.8-23.7,8.2-37.6
						c-0.9-7.8-1.5-15.4,1.3-22.9c2.7-7.1,7.6-13.2,12.5-18.9c8.8-10.2,19.3-19.8,23.9-32.8c9.5-26.9-15.1-45.8-26.1-67.3
						C1354,899.1,1364.6,865.6,1357.8,836.1z"/>
					<path class="st9" d="M1324.4,837.5c12.9,39.3,2.5,80.5,2.8,120.7c0.2,21.8,2.7,43.5,1.6,65.3c-1.2,23.5-8.8,45.4-13.9,68.1
						c-4.6,20.6-6.4,42.1,1.3,62.2c1,2.6,4.8,0.6,3.8-1.9c-16-41.8,10.6-85,13-126.9c1.3-21.8-1.3-43.5-1.5-65.3
						c-0.2-19.9,2-39.6,3.1-59.4c1.2-21.5,0.7-43.1-6-63.7C1327.7,834,1323.5,834.8,1324.4,837.5z"/>
				</g>
				<g>
					
						<linearGradient id="SVGID_12_" gradientUnits="userSpaceOnUse" x1="1467.5725" y1="-237.5173" x2="1409.3212" y2="-107.4524" gradientTransform="matrix(1 0 0 1 0 1156)">
						<stop  offset="0" style="stop-color:#BFE8F7"/>
						<stop  offset="1" style="stop-color:#93C6E5"/>
					</linearGradient>
					<path class="st25" d="M1570.8,805.7c-15-4.6-31.8-3-46.1,3.1c-35.3,15.1-52.7,52.8-74.2,82.1c-12.4,16.9-26.6,31.1-45.9,39.7
						c-15.6,6.9-29.1,13.8-37.6,29.3c-9.5,17.2-11.2,37.2-17.6,55.5c-3.3,9.4-7.8,17.9-14.7,25.2c-7.2,7.7-16,13.8-23.4,21.2
						c-15.4,15.3-19.5,33.9-15.1,54.9c4.7,22.2,18,46,11.1,68.6c-2.9,1-4,4.6-2.8,6.9c0,0,0,0,0,0.1c-2.7,5.2,5.8,8.7,8.4,3.5
						c0.3-0.5,0.5-1.1,0.8-1.7c31.6-0.9,61.8-17.7,78.2-45.1c9.5-16,12-35.2,21.7-51c10.7-17.6,29-18.1,45.9-26.3
						c14.6-7.1,21.7-19.9,24.1-35.6c2.6-17.6-0.3-38.7,12.1-53.2c10.9-12.7,28.3-17.4,40.9-28.1c14.3-12.1,17.6-29.1,17.7-47.1
						c0.1-17.6-1.9-39.5,12.3-52.8c9.3-8.7,32.1-1.7,33.3-18.8C1600.7,821,1583.2,809.5,1570.8,805.7z"/>
					<path class="st9" d="M1518.6,867.7c-48.4,19.9-75.4,67.2-96.6,112.4c-13,27.6-25,56-42.8,80.9c-15.7,22-35.6,41.2-47.2,65.8
						c-6.7,14.2-8.5,29.9-14.7,44.2c-6,14.1-21.7,29.1-37.7,19.8c-5.1-2.9-8.6,5.5-3.5,8.4c21,12.1,42.7-7.3,50.3-26.1
						c5.4-13.5,7.4-28.1,13.4-41.4c6.4-14.1,16-26.4,25.6-38.4c18.5-23,34.6-46.2,47.7-72.8c13.4-27.3,24.7-55.9,40.9-81.7
						c16.7-26.6,38.5-50.6,68.1-62.7C1527.6,873.9,1524,865.4,1518.6,867.7z"/>
				</g>
				<g>
					
						<linearGradient id="SVGID_13_" gradientUnits="userSpaceOnUse" x1="1247.0844" y1="-230.3337" x2="1269.22" y2="-76.5997" gradientTransform="matrix(1 0 0 1 0 1156)">
						<stop  offset="0" style="stop-color:#F48494"/>
						<stop  offset="1" style="stop-color:#EF627E"/>
					</linearGradient>
					<path class="st26" d="M1320.7,1075.1c5.4-13.1,12.6-26.2,12.9-40.7c0.5-30-30.4-40.6-48.5-58.4c-23.3-22.9-23.9-59.9-40.6-87
						c-8.1-13.2-18.7-24.9-31-34.3c-9.2-7.1-25.3-19.9-37.9-16.8c-12,3-12.3,18.1-6.8,26.9c4.2,6.7,11.1,11.1,15.5,17.7
						c4.3,6.5,5.2,14.3,4.7,21.9c-0.8,13.9-5.5,27.4-5.3,41.4c0.2,13.9,6.2,23.7,15.6,33.5c5.3,5.5,11.3,11.2,12.8,19.1
						c2.1,10.9-4,21.8-8.1,31.5c-5.5,12.9-9.2,28.7,0.9,40.4c5.6,6.5,13.8,9.9,20.3,15.4c7.6,6.6,11,16,12.3,25.8
						c2.7,20.5-4.2,41.5,2,61.7c8.9,29,40.1,47.4,69.7,42.3c3.1-0.5,3.3-3.9,1.7-5.8c-0.1-0.5-0.4-1-0.8-1.5
						c-4.1-5.1,2.3-18.4,4.1-23.5c1.6-4.6,3.7-8.3,5.7-12.8c2.3-3.1,4.1-7.2,5.5-10.2c6.9-14.2,1.9-27-4.5-40.3
						c-3.5-7.4-6.7-14.9-6.4-23.3C1314.8,1090.2,1317.7,1082.4,1320.7,1075.1z"/>
					<path class="st9" d="M1282.9,1085.8c-6-22.2-15.8-43-23.4-64.6c-6.9-19.7-11.2-40.2-16.7-60.3c-6-21.8-13.7-43.2-27.3-61.5
						c-1.7-2.3-5.6-0.1-3.9,2.3c26,34.8,29.4,79.5,43.2,119.5c7.5,21.7,17.3,42.5,23.5,64.6c6.7,23.8,6.4,48.2,8.9,72.6
						c2.3,22.1,7.7,44.1,22.1,61.6c1.8,2.2,5-1,3.2-3.2C1282.5,1180.4,1294.5,1128.4,1282.9,1085.8z"/>
				</g>
				<path class="st9" d="M1375.7,1178.9h-62.8h-62.8c-9.5,0-16.7,7.6-15.1,16l21.3,111.4c1.3,6.6,7.6,11.4,15.1,11.4h41.4h41.4
					c7.4,0,13.8-4.8,15.1-11.4l21.3-111.4C1392.4,1186.5,1385.2,1178.9,1375.7,1178.9z"/>
			</g>
			<g>
				
					<ellipse transform="matrix(0.761 -0.6488 0.6488 0.761 -491.6481 915.2227)" class="st3" cx="996.3" cy="1124.8" rx="42.8" ry="30.3"/>
				<path class="st27" d="M1020.9,1091.2c4.6,4.9,7,11.8,6.1,20.2c-2.1,19.4-20.8,38.9-41.7,43.5c-8,1.8-15.2,1.1-20.8-1.4
					c6.1,6.4,16.1,9.1,28,6.5c20.9-4.7,39.6-24.1,41.7-43.5C1035.4,1104.4,1030.1,1095.3,1020.9,1091.2z"/>
			</g>
			<g>
				<path class="st28" d="M775.6,584.9c-7.5-1.7-31.2-6.2-57.2-2.9c-31.5,3.9-52.9,9.3-65.3,8.1c-12.4,1.2-33.7-4.2-65.3-8.1
					c-26-3.2-49.8,1.3-57.2,2.9c-1.4,0.3-2.4,1.6-2.4,3v10.2c0,1.2,0.7,2.3,1.8,2.8c9.3,4,10.1,26.4,12.6,42.6
					c2.6,17.2,23.9,20.4,46.1,20.6c14.4,0.1,25.6-2.2,33.7-5.9c16.4-7.6,19.2-47.2,20.8-50.8s10-2.8,10-2.8s8.4-0.8,10,2.8
					s4.4,43.2,20.8,50.8c8,3.7,19.2,6,33.7,5.9c22.2-0.1,43.5-3.4,46.1-20.6c2.4-16.2,3.3-38.5,12.6-42.6c1.1-0.5,1.8-1.6,1.8-2.8
					v-10.2C778,586.4,777,585.2,775.6,584.9z M632.1,624.3c-5,20.8-10.2,24.7-20.2,29.5s-23.7,5.4-42.9,2.6
					c-19.2-2.8-21.4-14-21.9-43.1c-0.6-26.9,23.8-26,27.6-25.7c0.6,0,1.1,0.1,1.7,0.1c4.4,0.3,20.7,1.5,38.9,4.6
					C635,595.7,637.1,603.6,632.1,624.3z M737.1,656.5c-19.2,2.8-32.9,2.2-42.9-2.6s-15.2-8.8-20.2-29.5c-5-20.8-2.8-28.7,16.8-32
					c18.3-3.1,34.5-4.3,38.9-4.6c0.6,0,1.1-0.1,1.7-0.1c3.8-0.3,28.2-1.2,27.6,25.7C758.4,642.5,756.2,653.7,737.1,656.5z"/>
			</g>
		</g>
	</g>
</g>
</svg>
